<svg id="Layer_1" data-name="Layer 1" xmlns="http://www.w3.org/2000/svg" width="24" height="24" viewBox="0 0 24 24">
  <defs>
    <style>
      .cls-1 {
        fill: #4f4f4f;
      }
    </style>
  </defs>
  <title>Circle Arrow</title>
  <g>
    <path class="cls-1" d="M18.92279,11.61786a.99933.99933,0,0,0-.21606-.3252L13.707,6.293A.99989.99989,0,0,0,12.293,7.707L15.58594,11H6a1,1,0,0,0,0,2h9.58594l-3.293,3.293A.99989.99989,0,1,0,13.707,17.707l4.99969-4.99969a1.00352,1.00352,0,0,0,.21606-1.08948Z"/>
    <path class="cls-1" d="M12,0A12,12,0,1,0,24,12,12.01375,12.01375,0,0,0,12,0Zm0,22A10,10,0,1,1,22,12,10.01114,10.01114,0,0,1,12,22Z"/>
  </g>
</svg>
