<svg id="Layer_1" data-name="Layer 1" xmlns="http://www.w3.org/2000/svg" width="24" height="24" viewBox="0 0 24 24">
  <defs>
    <style>
      .cls-1 {
        fill: #4f4f4f;
      }
    </style>
  </defs>
  <title>Circle Dollar</title>
  <g>
    <path class="cls-1" d="M12,0A12,12,0,1,0,24,12,12.01375,12.01375,0,0,0,12,0Zm0,22A10,10,0,1,1,22,12,10.01114,10.01114,0,0,1,12,22Z"/>
    <path class="cls-1" d="M11.85693,11a1.14282,1.14282,0,1,1,1.10254-1.44629.99988.99988,0,1,0,1.92871-.52832A3.14586,3.14586,0,0,0,12.85693,6.8797V6a1,1,0,0,0-2,0v.89258a3.13422,3.13422,0,0,0,1,6.10742,1.14282,1.14282,0,1,1-1.06885,1.54883.99989.99989,0,0,0-1.86914.71094,3.15786,3.15786,0,0,0,1.938,1.85614V18a1,1,0,0,0,2,0v-.89258a3.13413,3.13413,0,0,0-1-6.10742Z"/>
  </g>
</svg>
