<svg id="Layer_1" data-name="Layer 1" xmlns="http://www.w3.org/2000/svg" width="24" height="24" viewBox="0 0 24 24">
  <defs>
    <style>
      .cls-1 {
        fill: #4f4f4f;
      }
    </style>
  </defs>
  <title>Circle Eye</title>
  <g>
    <path class="cls-1" d="M12,24A12,12,0,1,0,0,12,12.01344,12.01344,0,0,0,12,24Zm0-2a10.00841,10.00841,0,0,1-9.4129-6.65668C4.72461,17.45587,8.10071,20,12,20s7.27539-2.54419,9.4129-4.65674A10.00838,10.00838,0,0,1,12,22ZM2.25977,11.999C3.54688,10.39551,7.48633,6,12,6c4.501,0,8.4502,4.39795,9.74023,6.001C20.45313,13.60449,16.51367,18,12,18,7.499,18,3.5498,13.60205,2.25977,11.999ZM12,2a10.00838,10.00838,0,0,1,9.4129,6.65674C19.27539,6.54419,15.89929,4,12,4S4.72461,6.54413,2.5871,8.65668A10.00841,10.00841,0,0,1,12,2Z"/>
    <circle class="cls-1" cx="12" cy="12" r="4"/>
  </g>
</svg>
