<svg id="Layer_1" data-name="Layer 1" xmlns="http://www.w3.org/2000/svg" width="24" height="24" viewBox="0 0 24 24">
  <defs>
    <style>
      .cls-1 {
        fill: #4f4f4f;
      }
    </style>
  </defs>
  <title>Circle Attention</title>
  <g>
    <path class="cls-1" d="M12,24A12,12,0,1,0,0,12,12.01375,12.01375,0,0,0,12,24ZM12,2A10,10,0,1,1,2,12,10.01114,10.01114,0,0,1,12,2Z"/>
    <path class="cls-1" d="M12,14a1,1,0,0,0,1-1V6a1,1,0,0,0-2,0v7A1,1,0,0,0,12,14Z"/>
    <circle class="cls-1" cx="12" cy="17" r="1"/>
  </g>
</svg>
