<svg id="Layer_1" data-name="Layer 1" xmlns="http://www.w3.org/2000/svg" width="24" height="24" viewBox="0 0 24 24">
  <defs>
    <style>
      .cls-1 {
        fill: #4f4f4f;
      }
    </style>
  </defs>
  <title>Circle Check</title>
  <g>
    <path class="cls-1" d="M12,0A12,12,0,1,0,24,12,12.01375,12.01375,0,0,0,12,0Zm0,22A10,10,0,1,1,22,12,10.01114,10.01114,0,0,1,12,22Z"/>
    <path class="cls-1" d="M17.33789,7.33057l-7.33447,7.25879L6.707,11.293A.99989.99989,0,0,0,5.293,12.707l4,4a1.00025,1.00025,0,0,0,1.41064.00391l8.0415-7.9585a1.00025,1.00025,0,1,0-1.40723-1.42188Z"/>
  </g>
</svg>
